<svg xmlns="http://www.w3.org/2000/svg" viewBox="0 0 10.46 22.77"><defs><style>.cls-1{fill:#0064b0;}</style></defs><g id="Capa_2" data-name="Capa 2"><g id="Capa_2-2" data-name="Capa 2"><path class="cls-1" d="M2.75,22.77c-.26-.21-.24-.5-.24-.79,0-2.86,0-5.73,0-8.59,0-.46-.11-.65-.59-.61s-.88,0-1.32,0a.51.51,0,0,1-.6-.57q0-1.44,0-2.88c0-.37.21-.55.58-.56s1,0,1.46,0,.47-.13.47-.47a19.76,19.76,0,0,1,0-2.88A6.18,6.18,0,0,1,7.47.09L7.81,0h2.43a.9.9,0,0,1,.22.65c0,.88,0,1.75,0,2.63,0,.54-.15.68-.69.69h-1A2.24,2.24,0,0,0,6.53,6.21c0,.69,0,1.38,0,2.07,0,.37.11.51.49.5.78,0,1.55,0,2.33,0,.57,0,.71.15.72.73v2.57c0,.58-.14.7-.73.71H7.26c-.73,0-.73,0-.73.75V22c0,.29,0,.58-.24.79Z"/></g></g></svg>