<svg xmlns="http://www.w3.org/2000/svg" viewBox="0 0 45.93 30.75"><defs><style>.cls-1,.cls-2{fill:#0064ae;}.cls-1{fill-rule:evenodd;}</style></defs><g id="Capa_2" data-name="Capa 2"><g id="Capa_2-2" data-name="Capa 2"><path class="cls-1" d="M22.77,29.16c-.46-.06-.91-.14-1.36-.22a26.75,26.75,0,0,1-7-2.21,2.63,2.63,0,0,1-.41-.21c-.08-.06-.18-.18-.17-.26a.3.3,0,0,1,.2-.22,3.13,3.13,0,0,1,.86-.05l5.61.92a19.46,19.46,0,0,1-1.7-2.32c-2.7-4.42-3-9.84-4.05-14.85-.91.41-1.81.86-2.7,1.33a23.37,23.37,0,0,0-6.26,4.67,7.46,7.46,0,0,1-2,1.54c-.36.2-.71.42-1.07.64a7.72,7.72,0,0,0-2.34,2c-.31.44-.64.86-.11,1.37a.62.62,0,0,0-.26.81,2,2,0,0,0,.21.47,10.06,10.06,0,0,0,4.14,3.84c.67.27,1.34.56,2,.82a5.72,5.72,0,0,0,3,.52.31.31,0,0,1,.26.08,7.62,7.62,0,0,0,2.82,1.5,25.63,25.63,0,0,0,5.39,1.08c1.35.17,2.7.3,4.06.34.88,0,1.77-.1,2.66-.15Q23.64,29.92,22.77,29.16ZM6.35,22.58A1.29,1.29,0,0,1,5,21.41a1.24,1.24,0,1,1,2.48-.15A1.29,1.29,0,0,1,6.35,22.58Zm4.86,4.22a14.66,14.66,0,0,0,1.22-1.49,5.22,5.22,0,0,0,.14-5.94,12.05,12.05,0,0,0-2.78-3.12.24.24,0,0,1-.09-.18c.54.28,1.1.54,1.63.84a8.76,8.76,0,0,1,2.28,1.8,4.19,4.19,0,0,1,.45,5.3A8.82,8.82,0,0,1,11.21,26.8Z"/><path class="cls-2" d="M45.92,20.69c-.05-.12-.37-.22-1-.28a8.08,8.08,0,0,1-2.13-.59c-2.24-1-4.09-3.26-5.54-6.75a40.42,40.42,0,0,1-1.94-6.69A40.76,40.76,0,0,0,33.8.63a1,1,0,0,0-.57-.57,1.12,1.12,0,0,0-.87.06c-1,.41-1.57,1.44-1.79,3.09q-.3,2.22-2.24,14.18l-1.21-1.51c-.8-1-1.82-2.22-3-3.6A40.29,40.29,0,0,0,21,9.06,6.94,6.94,0,0,0,19.52,8a2.16,2.16,0,0,0-.91-.29,2.26,2.26,0,0,0-.75.21,1.25,1.25,0,0,0-.45.35,1.94,1.94,0,0,0-.36.85A4.4,4.4,0,0,0,17,10.55a45.4,45.4,0,0,0,.82,5c.43,1.6.54,1.94.69,2.36a24.73,24.73,0,0,0,1.31,3.15c1.94,3.72,3.64,6.49,5.91,7.93a7.54,7.54,0,0,0,4.23,1.39,6.41,6.41,0,0,0,2.18-.32c.39-.18.56-.32.51-.43s-.42-.25-1.09-.32a8.88,8.88,0,0,1-2.44-.63Q25.25,27,22.68,21.12A18.6,18.6,0,0,1,21.26,17a30.55,30.55,0,0,1-.46-3.52L25,18c1.81,2.18,3.21,3.06,4.18,2.65a2.37,2.37,0,0,0,1.15-.93,7.11,7.11,0,0,0,.77-2q.51-2,1.57-10.76l.22.84c.19.58.45,1.37.8,2.38s.71,2,1.09,2.86q2.13,5.1,5.09,7a6.62,6.62,0,0,0,3.7,1.27,5.51,5.51,0,0,0,1.91-.25C45.81,20.92,46,20.79,45.92,20.69Z"/></g></g></svg>