<svg xmlns="http://www.w3.org/2000/svg" viewBox="0 0 21.42 21.46"><defs><style>.cls-1{fill:#ff7b00;}</style></defs><g id="Capa_2" data-name="Capa 2"><g id="Capa_2-2" data-name="Capa 2"><path class="cls-1" d="M17.25,21.4A17.91,17.91,0,0,1,.81,8.75,28.63,28.63,0,0,1,0,3.6,3,3,0,0,1,.62,2,7.25,7.25,0,0,1,1.63,1,2.83,2.83,0,0,1,6.48,2.1c.22.72.36,1.46.61,2.18a2.93,2.93,0,0,1-.93,3.44,1,1,0,0,0-.34,1.35,10.93,10.93,0,0,0,6.64,6.55.89.89,0,0,0,1.12-.29,3,3,0,0,1,3.62-1c.65.22,1.32.36,2,.55a3,3,0,0,1,2.18,2.29,2.63,2.63,0,0,1-.91,2.61,4.72,4.72,0,0,0-.5.5A2.71,2.71,0,0,1,17.25,21.4Z"/></g></g></svg>