<svg xmlns="http://www.w3.org/2000/svg" viewBox="0 0 23.98 19.49"><defs><style>.cls-1{fill:#0064b0;}</style></defs><g id="Capa_2" data-name="Capa 2"><g id="Capa_2-2" data-name="Capa 2"><path class="cls-1" d="M4.41,11.75C2.48,11.13.7,9,1,6.89l1.77.54A5.37,5.37,0,0,1,1.59.85,13.88,13.88,0,0,0,11.6,6c0-.32,0-.66,0-1A5,5,0,0,1,15.72.06a4.81,4.81,0,0,1,4.13,1.27.78.78,0,0,0,.65.13c.89-.31,1.77-.66,2.63-1-.08.75-.55,1.43-1.71,2.56L24,2.31a21.62,21.62,0,0,1-1.77,1.95,1.69,1.69,0,0,0-.78,1.44,13.26,13.26,0,0,1-1.07,5.14,14,14,0,0,1-3.73,5.3,12.59,12.59,0,0,1-3.95,2.38,15,15,0,0,1-5.37,1A14,14,0,0,1,2,18.37a12.74,12.74,0,0,1-2-1.12,10.9,10.9,0,0,0,3.65-.33A9.75,9.75,0,0,0,7,15.28,5.58,5.58,0,0,1,4.28,14.2a5.21,5.21,0,0,1-1.73-2.45Z"/></g></g></svg>