<svg xmlns="http://www.w3.org/2000/svg" viewBox="0 0 23.52 23.5"><defs><style>.cls-1{fill:#ff7b00;}</style></defs><g id="Capa_2" data-name="Capa 2"><g id="Capa_2-2" data-name="Capa 2"><path class="cls-1" d="M11.8,23.5A11.75,11.75,0,1,1,23.52,11.35,11.73,11.73,0,0,1,11.8,23.5ZM4.37,19.18l.27-.06L8,18.24a.62.62,0,0,1,.48,0,7.38,7.38,0,0,0,8.31-1.17,7.13,7.13,0,0,0,2.36-4.87A6.94,6.94,0,0,0,18,7.68a7.16,7.16,0,0,0-7-3.32A7,7,0,0,0,5.41,8a7.17,7.17,0,0,0-.19,7,1,1,0,0,1,.07.76c-.28,1-.55,2-.82,2.94C4.44,18.85,4.41,19,4.37,19.18Z"/><path class="cls-1" d="M6.18,17.38c0-.17.06-.29.09-.41.13-.47.25-.94.39-1.41a.83.83,0,0,0-.1-.76,5.67,5.67,0,0,1-.85-3.53A5.88,5.88,0,0,1,8.8,6.37a6,6,0,0,1,7,.69A6.11,6.11,0,0,1,8.8,17a.83.83,0,0,0-.72-.09c-.5.16-1,.27-1.53.4Zm7.49-2.15.53-.06a1.56,1.56,0,0,0,1.33-1.51.4.4,0,0,0-.24-.4c-.45-.21-.9-.44-1.35-.64-.26-.12-.32-.09-.5.12s-.35.41-.51.62a.32.32,0,0,1-.41.1,5,5,0,0,1-2.47-2.11.33.33,0,0,1,.06-.45,3.94,3.94,0,0,0,.36-.45.47.47,0,0,0,.07-.47c-.2-.49-.4-1-.61-1.46a.46.46,0,0,0-.24-.22,1,1,0,0,0-1.09.27,2.08,2.08,0,0,0-.53,1.71,2.93,2.93,0,0,0,.56,1.42c.39.52.79,1,1.22,1.53a6.8,6.8,0,0,0,3.28,1.92C13.3,15.19,13.48,15.2,13.67,15.23Z"/></g></g></svg>