<svg xmlns="http://www.w3.org/2000/svg" viewBox="0 0 22.77 22.77"><defs><style>.cls-1{fill:#0064b0;}</style></defs><g id="Capa_2" data-name="Capa 2"><g id="Capa_2-2" data-name="Capa 2"><path class="cls-1" d="M16.7,22.77H6.07a7.36,7.36,0,0,1-4.56-2.65A8,8,0,0,1,0,16.8V6A8.53,8.53,0,0,1,1,3.35,7.35,7.35,0,0,1,6.07,0H16.7a7.64,7.64,0,0,1,3.61,1.67,7.5,7.5,0,0,1,2.46,4.4V16.7a8,8,0,0,1-.94,2.59A7.32,7.32,0,0,1,16.7,22.77ZM2.17,11c0,1.73,0,3.13,0,4.53A5,5,0,0,0,7.23,20.6q4.14,0,8.3,0a5,5,0,0,0,5.07-5q.06-4.14,0-8.3a4.94,4.94,0,0,0-5-5.1c-2.79-.05-5.57,0-8.35,0a4.86,4.86,0,0,0-5,4.43A40.85,40.85,0,0,0,2.17,11Z"/><path class="cls-1" d="M11.36,17.13a5.75,5.75,0,1,1,5.77-5.69A5.75,5.75,0,0,1,11.36,17.13Zm0-2.26A3.49,3.49,0,1,0,7.9,11.36,3.44,3.44,0,0,0,11.37,14.87Z"/><path class="cls-1" d="M17.53,4.47a.82.82,0,0,1,.77.83.8.8,0,0,1-1.59,0A.83.83,0,0,1,17.53,4.47Z"/></g></g></svg>