<svg xmlns="http://www.w3.org/2000/svg" viewBox="0 0 318.08 92.46"><defs><style>.cls-1,.cls-2{fill:#fff;}.cls-2{fill-rule:evenodd;}</style></defs><g id="Capa_2" data-name="Capa 2"><g id="Capa_2-2" data-name="Capa 2"><path class="cls-1" d="M122,.13a13.61,13.61,0,0,1,8.28,3.68,8.65,8.65,0,0,1,2.73,7.5c-.29,2.41-1.11,3.54-2.44,3.37-.56-.07-1.18-1-1.88-2.71a6,6,0,0,0-5.26-4.13,17.25,17.25,0,0,0-11.56,2.36q-9.81,6.06-11,15.92a14.22,14.22,0,0,0,1.58,8.56,7.84,7.84,0,0,0,6.15,4.51,14,14,0,0,0,5.63-.6,22.44,22.44,0,0,0,4.94-2l1.91-1a47.78,47.78,0,0,1-.23-9.21,48.11,48.11,0,0,1,1.28-7q1.23-4.55,4-4.2a2.75,2.75,0,0,1,2.23,1.92,8.09,8.09,0,0,1,.43,4.1l-1.13,9.23a30.41,30.41,0,0,0,.16,7.37,23.24,23.24,0,0,0,1.35,5.95,6.11,6.11,0,0,1,.71,2.57c-.09.72-.52,1-1.3.94a5.5,5.5,0,0,1-2.71-1.43A7.67,7.67,0,0,1,124,43.47a18.46,18.46,0,0,1-1.31-2.83l-.37-1.14c-.19.16-.43.37-.71.64a20,20,0,0,1-2,1.46,21.33,21.33,0,0,1-3.1,1.79,17.47,17.47,0,0,1-3.92,1.17,15,15,0,0,1-4.68.17Q101.8,44,97.54,37.85a14.11,14.11,0,0,1-2.38-6.54A29.66,29.66,0,0,1,95.07,24a32.61,32.61,0,0,1,2.75-9,24.25,24.25,0,0,1,6.71-8.78Q113.38-.91,122,.13Z"/><path class="cls-1" d="M142.72.23c.54.06.74.71.59,1.94a11.55,11.55,0,0,1-.57,2.42q-4.34,14.52-5.22,21.82-1.77,14.48,6.15,15.44,9.44,1.14,15.91-12.27,1.84-3.72,6.14-21.35a32.16,32.16,0,0,1,2-6.41A2.45,2.45,0,0,1,170.36.27c1.69.2,2.36,1.72,2,4.54a70.23,70.23,0,0,1-2.25,10.54,89.75,89.75,0,0,1-3.69,11.53,23.48,23.48,0,0,0-.87,4.82q-.52,4.29-.71,8.09c-.12,2.89-.17,5.43-.16,7.6a6.67,6.67,0,0,1,0,1.45q-.08.61-.42.57c-1.36-.16-2.17-2.23-2.43-6.18L161.46,37c-.19.35-.45.79-.79,1.32a27.8,27.8,0,0,1-2.28,2.81,27,27,0,0,1-3.72,3.5,17.29,17.29,0,0,1-5,2.51,14.1,14.1,0,0,1-6.18.63,13.73,13.73,0,0,1-5.72-1.95,11.15,11.15,0,0,1-3.71-3.64,17.1,17.1,0,0,1-2-4.74,23,23,0,0,1-.77-5.08,30.84,30.84,0,0,1,.21-4.89,61.78,61.78,0,0,1,4.79-17.65Q140.8,0,142.72.23Z"/><path class="cls-1" d="M179.08,4.9c1.61.2,3,1.41,4.35,3.64A17.45,17.45,0,0,1,185,12.11a18.09,18.09,0,0,1,.75,3.1l.14,1.14q4.44-4.8,8.21-6.41,5.67-2.5,9.65-2a11.59,11.59,0,0,1,6.6,2.88q2.63,2.38,2.32,4.89a4.83,4.83,0,0,1-1.4,3,3.08,3.08,0,0,1-2.56,1,2.93,2.93,0,0,1-2.22-1.87A4.14,4.14,0,0,0,203,15.17q-4-.48-9,2.75a19.89,19.89,0,0,0-4.85,4.29,16.17,16.17,0,0,0-2.56,4L186,27.74a52.91,52.91,0,0,1-1.62,7.88,42.88,42.88,0,0,1-6.08,12.79q-2.4,3.47-4.26,3.24c-.61-.08-.85-.67-.72-1.78a12,12,0,0,1,.93-3A54.46,54.46,0,0,0,178.51,31a42.73,42.73,0,0,0-1.11-16.21,22.7,22.7,0,0,1-.87-7.44,2.51,2.51,0,0,1,1-1.94A2.42,2.42,0,0,1,179.08,4.9Z"/><path class="cls-1" d="M204.11,56.93a4,4,0,0,1-1.71-1.29,5.05,5.05,0,0,1-1.25-2.57,16.12,16.12,0,0,1,.14-5.59c.38-2.06,1.12-5.06,2.22-9A28.36,28.36,0,0,1,206.09,32c1-1.64,1.87-2.34,2.7-2.11,1.36.39,1.63,2,.83,4.85-.26.93-.81,2.45-1.64,4.54s-1.41,3.69-1.72,4.8a59.79,59.79,0,0,0-1.59,6.83,7.23,7.23,0,0,0,.36,4.12,2.81,2.81,0,0,1,.45,1.59C205.37,57.06,204.91,57.16,204.11,56.93Zm7.2-30.74A2.21,2.21,0,0,1,210,25.3a1.75,1.75,0,0,1-.24-1.55,3.36,3.36,0,0,1,2.14-2.21,3.56,3.56,0,0,1,2.15-.24c.73.2,1,.59.86,1.14s-.37.78-.7.87a2,2,0,0,0-1.09,1.49,2.07,2.07,0,0,1-.77,1.14A1.26,1.26,0,0,1,211.31,26.19Z"/><path class="cls-1" d="M268.22,28.77a12.37,12.37,0,0,0-7.06-3.22q-7.37-1.14-15.11,4.26a19.32,19.32,0,0,0-4.7,4.72c-.21-.69-1.47-1.22-3.78-1.58a60.81,60.81,0,0,0-11.76-.19l.5-1.25q.49-1.25,1.05-2.94a16.4,16.4,0,0,0,.7-2.57,3.55,3.55,0,0,0-.16-1.86c-.22-.53-.51-.83-.86-.88q-1-.17-2.76,1.92c-1.22,1.41-2.68,4.18-4.35,8.29l-.56.09a11.15,11.15,0,0,0-1.66.41,16.31,16.31,0,0,0-1.94.72q-4.35,2-4.75,4.62a1.85,1.85,0,0,0,.28,1.31,1.55,1.55,0,0,0,1.15.71,4.63,4.63,0,0,0,2.77-.77q1.38-.75,3.12-1.5l-.54,2.68q-1,6.7.63,11.08c1.11,2.92,2.77,4.55,5,4.89,1.57.24,2.4,0,2.5-.58s-.42-1.22-1.51-1.91a6.78,6.78,0,0,1-2.61-4,15.1,15.1,0,0,1-.23-6.47,24.3,24.3,0,0,1,2.22-7.36l1.06-.2c.74-.12,1.7-.26,2.89-.42s2.25-.26,3.18-.32c4.9-.28,7.66-.5,8.28-.64a8.5,8.5,0,0,0,1.64-.49c-.24.39-.47.79-.68,1.2a23.75,23.75,0,0,0-2.53,7,21.86,21.86,0,0,0,0,5.79,10.87,10.87,0,0,0,1.93,5.29,13.14,13.14,0,0,0,8.86,5.85,14,14,0,0,0,4,0,15.19,15.19,0,0,0,3.38-.79,18.59,18.59,0,0,0,2.7-1.31,15.48,15.48,0,0,0,1.71-1.09c.25-.21.46-.37.63-.49l.29.93a15.63,15.63,0,0,0,1.08,2.29,6.54,6.54,0,0,0,1.5,1.92,5.09,5.09,0,0,0,2.3,1.24c.67.1,1.05-.13,1.14-.71a4.68,4.68,0,0,0-.56-2.07,17,17,0,0,1-1.06-4.78,22.11,22.11,0,0,1,0-5.87l1.13-7.31a5.85,5.85,0,0,0-.3-3.27,2.39,2.39,0,0,0-1.87-1.62q-2.37-.36-3.51,3.2a36.77,36.77,0,0,0-1.22,5.54,34.75,34.75,0,0,0,0,7.34l-1.66.77a20.18,20.18,0,0,1-4.29,1.39,13,13,0,0,1-4.85.28,6.89,6.89,0,0,1-5.2-3.82,10.66,10.66,0,0,1-1.22-6.86q1.22-7.81,9.76-12.29a15.73,15.73,0,0,1,10-1.46,5.21,5.21,0,0,1,4.45,3.48q.85,2.11,1.56,2.22c1.15.18,1.87-.69,2.17-2.6A6.72,6.72,0,0,0,268.22,28.77Z"/><path class="cls-2" d="M54.06,74.07c-1.08-.16-2.16-.34-3.24-.52a63.64,63.64,0,0,1-16.56-5.26,7,7,0,0,1-1-.5c-.19-.14-.42-.41-.41-.6a.75.75,0,0,1,.49-.53,7,7,0,0,1,2-.12q6.68,1.06,13.33,2.17a42.14,42.14,0,0,1-4-5.51C38.27,52.71,37.5,39.86,35.06,28q-3.24,1.49-6.4,3.17A55.54,55.54,0,0,0,13.79,42.2a18,18,0,0,1-4.67,3.66c-.87.46-1.7,1-2.55,1.52A18,18,0,0,0,1,52.13c-.75,1-1.54,2-.27,3.25A1.46,1.46,0,0,0,.14,57.3a4.31,4.31,0,0,0,.51,1.11c2.66,3.79,5.52,7.35,9.82,9.12,1.59.65,3.18,1.32,4.78,2,2.27.88,4.56,1.62,7,1.23a.82.82,0,0,1,.62.19,18.26,18.26,0,0,0,6.68,3.57A61.48,61.48,0,0,0,42.39,77c3.19.39,6.41.7,9.62.79,2.1,0,4.21-.23,6.31-.35C56.86,76.4,55.43,75.27,54.06,74.07Zm-39-15.64a3.07,3.07,0,0,1-3.22-2.78,3,3,0,1,1,5.91-.35A3.09,3.09,0,0,1,15.08,58.43Zm11.54,10a41.86,41.86,0,0,0,2.9-3.55,12.47,12.47,0,0,0,.34-14.11,28.66,28.66,0,0,0-6.62-7.41A.49.49,0,0,1,23,43c1.29.66,2.6,1.28,3.87,2a20.74,20.74,0,0,1,5.41,4.27c3.44,3.86,3.63,8.31,1.07,12.59A21.07,21.07,0,0,1,26.62,68.47Z"/><path class="cls-2" d="M310.09,48c4.38-3.51,6.72-8.18,7.91-13.55.23-1-.08-1.54-1.05-1.7a50,50,0,0,0-5.8-.84,56.6,56.6,0,0,0-15.54,1.72q-9.35,2.25-18.71,4.45a12,12,0,0,1-3.71.31c0,.17,0,.34-.05.51a.65.65,0,0,1-.07.21.74.74,0,0,1,0,.21c-.84,5.44-1.78,11-1.36,16.55a35.34,35.34,0,0,0,1,6l.11.11c2.53,2.75,5.06,5.53,7.32,8.5a122.35,122.35,0,0,0,15.49,17.3,34.14,34.14,0,0,0,3.89,3,10.57,10.57,0,0,0,4.54,1.67c.21-1,.35-1.88.6-2.75a11.17,11.17,0,0,0,0-6.48c-.5-1.66-.65-3.41-1-5.11s-.7-3.11-1.1-4.65a15.22,15.22,0,0,1-.84-2.89,17.12,17.12,0,0,0-2.09-6.94c-1.64-3.35-1.12-5.88,1.69-8.34S307.11,50.37,310.09,48Zm-31.93-4.71c4.18-1.45,8.34-2.93,12.54-4.33a54.24,54.24,0,0,1,16.05-3c.87,0,1.74,0,2.61.06l0,.5a18.15,18.15,0,0,1-3,.49c-7.91,0-15.35,2.11-22.69,4.75-1.8.65-3.61,1.23-5.41,1.84ZM288.63,64c2.37,1.95,4.67,4,7,6a3.57,3.57,0,0,1,.27.28l-.14.29a9.3,9.3,0,0,1-2.08-1c-1.67-1.37-3.25-2.84-4.84-4.3-2.88-2.64-5.75-5.28-9.26-7.1a3.33,3.33,0,0,1-.48-.38,1.67,1.67,0,0,1,2.12.33C283.71,60.07,286.19,62,288.63,64Zm-3.83-8.15c3.14.23,6.23.89,9.33,1.43a3.06,3.06,0,0,0-.05.32l-9.32-1.44C284.78,56.09,284.79,56,284.8,55.89Zm0-5.16a67.35,67.35,0,0,1,14.51-2.57Zm13.57,32.89A7.82,7.82,0,0,1,294,80.57c-1.89-2.51-3.69-5.09-5.5-7.65a57.55,57.55,0,0,0-12-13.15,2.46,2.46,0,0,0-.27-.17l.19-.33a3,3,0,0,1,1.07.35c1.07.93,2.14,1.89,3.13,2.91a94.47,94.47,0,0,1,10,12.68C292.67,78.36,294.81,81.52,298.38,83.62Zm1.87-41c-1.66.12-3.33.25-5,.5s-3.32.66-5,1a42.51,42.51,0,0,1,14.82-2l0,.33C303.52,42.45,301.88,42.47,300.25,42.58Z"/><path class="cls-1" d="M42,41.69a.6.6,0,0,0,.29-.08A.6.6,0,0,0,42,41.69Z"/><path class="cls-1" d="M109,54c-.12-.29-.88-.52-2.27-.68a18.84,18.84,0,0,1-5.07-1.4q-8-3.6-13.16-16A98.15,98.15,0,0,1,83.92,20Q81.66,9.7,80.26,6.34A2.34,2.34,0,0,0,78.91,5a2.85,2.85,0,0,0-2.09.14c-2.3,1-3.72,3.42-4.23,7.34q-.72,5.28-5.34,33.68l-2.86-3.61q-2.87-3.6-7.22-8.55a93.71,93.71,0,0,0-7.37-7.63,16.42,16.42,0,0,0-3.46-2.54,4.86,4.86,0,0,0-2.16-.68,6,6,0,0,0-1.78.48,3.08,3.08,0,0,0-1.06.83,5,5,0,0,0-.87,2,10,10,0,0,0-.14,3.4c.5,4.09,1,8.05,1.56,11.91L42,41.7C42.5,43.14,43.14,45,44,47.2q1.47,4.06,3,7.7,6,13.71,14,18.84,5.31,3.39,10,3.29a14.71,14.71,0,0,0,5.17-.77q1.4-.62,1.23-1c-.15-.33-1-.58-2.6-.74A21.19,21.19,0,0,1,69.09,73q-9.15-4-15.25-18a83.5,83.5,0,0,1-3.48-10.16c-.29-2.4-.62-5.06-1-8L59.3,47.57q6.47,7.74,9.93,6.3A5.8,5.8,0,0,0,72,51.66a17.86,17.86,0,0,0,1.84-4.84Q75,42.2,77.52,21.27l.53,2q.65,2,1.89,5.64c.82,2.4,1.68,4.66,2.58,6.8q5.06,12.12,12.09,16.72a15.92,15.92,0,0,0,8.77,3,13,13,0,0,0,4.55-.62C108.75,54.5,109.12,54.2,109,54ZM42.31,41.61a.6.6,0,0,1-.29.08A.6.6,0,0,1,42.31,41.61Z"/><path class="cls-1" d="M86.9,78.49h-1L84.37,71.1v7.41h-.91V69.22h1.45l1.53,7.42,1.47-7.42h1.45v9.29h-1V71Z"/><path class="cls-1" d="M95.45,76.64l-.36,1.87h-1l1.78-9.29h1.5l1.78,9.29h-1l-.36-1.87Zm.13-.89h2.07L96.6,70.39Z"/><path class="cls-1" d="M106.05,69.22a2,2,0,0,1,1.59.54,2.31,2.31,0,0,1,.48,1.58v.76a2.37,2.37,0,0,1-.28,1.24A1.46,1.46,0,0,1,107,74a1.41,1.41,0,0,1,.9.68,2.61,2.61,0,0,1,.27,1.26v1.44c0,.21,0,.4,0,.59a1.36,1.36,0,0,0,.16.53h-1a2.13,2.13,0,0,1-.13-.43,5.61,5.61,0,0,1,0-.7V75.92a1.38,1.38,0,0,0-.35-1.08,1.49,1.49,0,0,0-1-.3H105v4h-1V69.22Zm-.26,4.38a1.62,1.62,0,0,0,1-.26,1.21,1.21,0,0,0,.34-1v-.89a1.56,1.56,0,0,0-.24-1,1,1,0,0,0-.83-.32h-1V73.6Z"/><path class="cls-1" d="M114.23,69.22v9.29h-1V69.22Z"/><path class="cls-1" d="M121.22,69.12a1.9,1.9,0,0,1,1.57.63,2.65,2.65,0,0,1,.5,1.7v.25h-1v-.31a1.63,1.63,0,0,0-.25-1,1.13,1.13,0,0,0-1.62,0,1.6,1.6,0,0,0-.25,1,1.72,1.72,0,0,0,.23.9A3,3,0,0,0,121,73a9.66,9.66,0,0,0,.75.64,7,7,0,0,1,.75.68,3.33,3.33,0,0,1,.57.85,2.41,2.41,0,0,1,.24,1.12A2.6,2.6,0,0,1,122.8,78a1.93,1.93,0,0,1-1.59.63,1.9,1.9,0,0,1-1.58-.63,2.6,2.6,0,0,1-.5-1.69v-.53h1v.58a1.55,1.55,0,0,0,.26,1,1,1,0,0,0,.82.35,1,1,0,0,0,.83-.35,1.61,1.61,0,0,0,.26-1,1.71,1.71,0,0,0-.23-.89,3.54,3.54,0,0,0-.58-.71c-.23-.22-.48-.43-.74-.64a5.28,5.28,0,0,1-.74-.68,3.49,3.49,0,0,1-.58-.84,2.46,2.46,0,0,1-.23-1.12,2.59,2.59,0,0,1,.5-1.7A1.87,1.87,0,0,1,121.22,69.12Z"/><path class="cls-1" d="M130.2,69.12a1.92,1.92,0,0,1,1.58.64,2.65,2.65,0,0,1,.51,1.7v.84h-1v-.89a1.64,1.64,0,0,0-.26-1,1.15,1.15,0,0,0-1.65,0,1.58,1.58,0,0,0-.27,1v4.91a1.62,1.62,0,0,0,.27,1,1.15,1.15,0,0,0,1.65,0,1.69,1.69,0,0,0,.26-1V75.11h1v1.15a2.63,2.63,0,0,1-.51,1.7,2.27,2.27,0,0,1-3.16,0,2.63,2.63,0,0,1-.51-1.7v-4.8a3.23,3.23,0,0,1,.13-1,1.92,1.92,0,0,1,.38-.74,1.81,1.81,0,0,1,.65-.47A2.38,2.38,0,0,1,130.2,69.12Z"/><path class="cls-1" d="M137.14,71.46a2.61,2.61,0,0,1,.52-1.71,2,2,0,0,1,1.6-.63,2,2,0,0,1,1.61.63,2.61,2.61,0,0,1,.53,1.71v4.8a2.58,2.58,0,0,1-.53,1.7,2,2,0,0,1-1.61.64,1.93,1.93,0,0,1-1.6-.64,2.58,2.58,0,0,1-.52-1.7Zm1,4.86a1.62,1.62,0,0,0,.27,1,1.17,1.17,0,0,0,1.67,0,1.69,1.69,0,0,0,.26-1V71.41a1.64,1.64,0,0,0-.26-1,1.17,1.17,0,0,0-1.67,0,1.58,1.58,0,0,0-.27,1Z"/><path class="cls-1" d="M148.31,69.12a1.9,1.9,0,0,1,1.57.63,2.71,2.71,0,0,1,.5,1.7v.25h-1v-.31a1.63,1.63,0,0,0-.25-1,1.13,1.13,0,0,0-1.62,0,1.6,1.6,0,0,0-.25,1,1.63,1.63,0,0,0,.23.9,3,3,0,0,0,.58.71,9.66,9.66,0,0,0,.75.64,7,7,0,0,1,.75.68,3.33,3.33,0,0,1,.57.85,2.41,2.41,0,0,1,.24,1.12,2.6,2.6,0,0,1-.52,1.69,1.92,1.92,0,0,1-1.58.63,1.89,1.89,0,0,1-1.58-.63,2.6,2.6,0,0,1-.51-1.69v-.53h1v.58a1.55,1.55,0,0,0,.27,1,1,1,0,0,0,.82.35,1,1,0,0,0,.82-.35,1.55,1.55,0,0,0,.27-1,1.71,1.71,0,0,0-.23-.89,3.54,3.54,0,0,0-.58-.71c-.23-.22-.48-.43-.74-.64a5.36,5.36,0,0,1-.75-.68,3.46,3.46,0,0,1-.57-.84,2.46,2.46,0,0,1-.24-1.12,2.59,2.59,0,0,1,.51-1.7A1.85,1.85,0,0,1,148.31,69.12Z"/><path class="cls-1" d="M163,75.18l-2-6h1.07l1.45,4.56L165,69.22h1l-2,6v3.33h-1Z"/><path class="cls-1" d="M178.73,69.12a1.93,1.93,0,0,1,1.59.64,2.65,2.65,0,0,1,.51,1.7v.84h-1v-.89a1.64,1.64,0,0,0-.26-1,1,1,0,0,0-.83-.35,1,1,0,0,0-.83.35,1.64,1.64,0,0,0-.26,1v4.91a1.69,1.69,0,0,0,.26,1,1,1,0,0,0,.83.35,1,1,0,0,0,.83-.35,1.69,1.69,0,0,0,.26-1V75.11h1v1.15a2.63,2.63,0,0,1-.51,1.7,1.9,1.9,0,0,1-1.59.64,1.87,1.87,0,0,1-1.57-.64,2.63,2.63,0,0,1-.51-1.7v-4.8a3.6,3.6,0,0,1,.12-1,2.09,2.09,0,0,1,.39-.74,1.73,1.73,0,0,1,.65-.47A2.36,2.36,0,0,1,178.73,69.12Z"/><path class="cls-1" d="M185.67,71.46a2.61,2.61,0,0,1,.53-1.71,2.35,2.35,0,0,1,3.2,0,2.55,2.55,0,0,1,.53,1.71v4.8a2.53,2.53,0,0,1-.53,1.7,2.32,2.32,0,0,1-3.2,0,2.58,2.58,0,0,1-.53-1.7Zm1,4.86a1.55,1.55,0,0,0,.28,1,1.16,1.16,0,0,0,1.66,0,1.62,1.62,0,0,0,.27-1V71.41a1.58,1.58,0,0,0-.27-1,1.16,1.16,0,0,0-1.66,0,1.52,1.52,0,0,0-.28,1Z"/><path class="cls-1" d="M196.9,69.12a1.93,1.93,0,0,1,1.59.64,2.65,2.65,0,0,1,.51,1.7v.84h-1v-.89a1.65,1.65,0,0,0-.25-1,1,1,0,0,0-.83-.35,1,1,0,0,0-.83.35,1.64,1.64,0,0,0-.26,1v4.91a1.69,1.69,0,0,0,.26,1,1,1,0,0,0,.83.35,1,1,0,0,0,.83-.35,1.69,1.69,0,0,0,.25-1V75.11h1v1.15a2.63,2.63,0,0,1-.51,1.7,1.9,1.9,0,0,1-1.59.64,1.87,1.87,0,0,1-1.57-.64,2.63,2.63,0,0,1-.51-1.7v-4.8a3.6,3.6,0,0,1,.12-1,1.94,1.94,0,0,1,.39-.74,1.73,1.73,0,0,1,.65-.47A2.36,2.36,0,0,1,196.9,69.12Z"/><path class="cls-1" d="M205.26,78.51V70.16h-1.71v-.94H208v.94h-1.72v8.35Z"/><path class="cls-1" d="M216,73.33v.93h-2.27v3.31h2.78v.94h-3.82V69.22h3.82v.94h-2.78v3.17Z"/><path class="cls-1" d="M221.44,78.51V69.22h1v8.35h2.65v.94Z"/><path class="cls-1" d="M233.2,73.33v.93h-2.27v3.31h2.79v.94h-3.83V69.22h3.83v.94h-2.79v3.17Z"/><path class="cls-1" d="M240.6,69.12a1.9,1.9,0,0,1,1.57.63,2.65,2.65,0,0,1,.51,1.7v.25h-1v-.31a1.63,1.63,0,0,0-.25-1,1.13,1.13,0,0,0-1.62,0,1.6,1.6,0,0,0-.25,1,1.72,1.72,0,0,0,.23.9,3.28,3.28,0,0,0,.58.71,9.66,9.66,0,0,0,.75.64,7,7,0,0,1,.75.68,3.65,3.65,0,0,1,.58.85,2.54,2.54,0,0,1,.23,1.12,2.6,2.6,0,0,1-.51,1.69,1.93,1.93,0,0,1-1.59.63A1.9,1.9,0,0,1,239,78a2.66,2.66,0,0,1-.5-1.69v-.53h1v.58a1.55,1.55,0,0,0,.26,1,1.15,1.15,0,0,0,1.65,0,1.91,1.91,0,0,0,0-1.87,3.23,3.23,0,0,0-.58-.71,9.46,9.46,0,0,0-.74-.64,5.28,5.28,0,0,1-.74-.68,3.49,3.49,0,0,1-.58-.84,2.46,2.46,0,0,1-.23-1.12,2.65,2.65,0,0,1,.5-1.7A1.88,1.88,0,0,1,240.6,69.12Z"/></g></g></svg>