<svg xmlns="http://www.w3.org/2000/svg" viewBox="0 0 254.09 73.86"><defs><style>.cls-1,.cls-2{fill:#0064ae;}.cls-2{fill-rule:evenodd;}</style></defs><g id="Capa_2" data-name="Capa 2"><g id="Capa_2-2" data-name="Capa 2"><path class="cls-1" d="M97.44.11A10.91,10.91,0,0,1,104.06,3a6.93,6.93,0,0,1,2.18,6c-.23,1.93-.89,2.83-1.95,2.7-.45-.05-1-.78-1.5-2.17a4.78,4.78,0,0,0-4.2-3.3,13.8,13.8,0,0,0-9.24,1.89Q81.52,13,80.55,20.87a11.33,11.33,0,0,0,1.27,6.83,6.24,6.24,0,0,0,4.91,3.61,11.37,11.37,0,0,0,4.49-.48,18.14,18.14,0,0,0,4-1.57l1.53-.84a37.87,37.87,0,0,1-.19-7.37,40.76,40.76,0,0,1,1-5.59q1-3.63,3.19-3.36a2.22,2.22,0,0,1,1.78,1.54,6.51,6.51,0,0,1,.34,3.27l-.9,7.38a23.62,23.62,0,0,0,.13,5.88,18.13,18.13,0,0,0,1.08,4.76,4.81,4.81,0,0,1,.56,2c-.07.58-.42.83-1,.75a4.54,4.54,0,0,1-2.16-1.14,6.3,6.3,0,0,1-1.43-1.87,15,15,0,0,1-1-2.25l-.29-.92c-.15.13-.34.3-.57.52a16.68,16.68,0,0,1-1.57,1.16,16.4,16.4,0,0,1-2.47,1.43A14.08,14.08,0,0,1,90,35.6a12.06,12.06,0,0,1-3.74.13q-4.94-.6-8.34-5.49A11.23,11.23,0,0,1,76,25a23.6,23.6,0,0,1-.07-5.8A25.57,25.57,0,0,1,78.15,12,19.14,19.14,0,0,1,83.5,5Q90.57-.74,97.44.11Z"/><path class="cls-1" d="M114,.18c.44.05.59.57.47,1.55A9.82,9.82,0,0,1,114,3.67a117.64,117.64,0,0,0-4.18,17.43q-1.41,11.56,4.92,12.33,7.53.91,12.71-9.8,1.47-3,4.9-17.06A26.15,26.15,0,0,1,134,1.46,2,2,0,0,1,136.09.21q2,.26,1.61,3.63a55.86,55.86,0,0,1-1.81,8.42,69.11,69.11,0,0,1-2.95,9.21,19.64,19.64,0,0,0-.68,3.85c-.28,2.29-.47,4.45-.57,6.46-.1,2.32-.14,4.34-.13,6.08a5.89,5.89,0,0,1,0,1.16c0,.32-.15.48-.34.45q-1.63-.19-1.94-4.94l-.27-5c-.15.27-.36.63-.63,1.05a22.84,22.84,0,0,1-1.82,2.24,22.13,22.13,0,0,1-3,2.8,13.58,13.58,0,0,1-4,2,11.22,11.22,0,0,1-4.94.51,10.92,10.92,0,0,1-4.57-1.55,9.06,9.06,0,0,1-3-2.91,13.85,13.85,0,0,1-1.56-3.79,18.8,18.8,0,0,1-.62-4.06,25.66,25.66,0,0,1,.18-3.91,49.22,49.22,0,0,1,3.82-14.09Q112.48,0,114,.18Z"/><path class="cls-1" d="M143.06,3.92c1.28.15,2.43,1.12,3.47,2.9a14.14,14.14,0,0,1,1.22,2.85,14.06,14.06,0,0,1,.6,2.48l.11.91A20.52,20.52,0,0,1,155,7.94a15.13,15.13,0,0,1,7.71-1.61A9.27,9.27,0,0,1,168,8.63c1.4,1.28,2,2.58,1.85,3.91a3.79,3.79,0,0,1-1.12,2.38,2.42,2.42,0,0,1-2,.76,2.33,2.33,0,0,1-1.77-1.49,3.31,3.31,0,0,0-2.75-2.07q-3.18-.39-7.18,2.2a15.62,15.62,0,0,0-3.87,3.43,12.44,12.44,0,0,0-2.05,3.2l-.52,1.21a43.15,43.15,0,0,1-1.3,6.3,34.51,34.51,0,0,1-4.86,10.21q-1.92,2.78-3.4,2.59c-.49-.06-.68-.54-.57-1.42a9.5,9.5,0,0,1,.74-2.39,43.55,43.55,0,0,0,3.44-12.72,34.18,34.18,0,0,0-.89-12.95A18.06,18.06,0,0,1,141,5.84a2,2,0,0,1,.83-1.55A1.85,1.85,0,0,1,143.06,3.92Z"/><path class="cls-1" d="M163.05,45.48a3.3,3.3,0,0,1-1.37-1,3.91,3.91,0,0,1-1-2,12.77,12.77,0,0,1,.11-4.46q.45-2.48,1.77-7.18a22.17,22.17,0,0,1,2.06-5.16c.78-1.31,1.49-1.87,2.16-1.68q1.62.45.66,3.86c-.21.75-.65,2-1.31,3.63s-1.12,3-1.37,3.83a46.78,46.78,0,0,0-1.27,5.46,5.69,5.69,0,0,0,.29,3.29,2.33,2.33,0,0,1,.36,1.27C164.05,45.58,163.69,45.66,163.05,45.48Zm5.75-24.56a1.79,1.79,0,0,1-1-.71A1.38,1.38,0,0,1,167.6,19a2.66,2.66,0,0,1,1.71-1.77A2.93,2.93,0,0,1,171,17c.58.17.81.47.69.91s-.3.63-.56.7a1.65,1.65,0,0,0-.87,1.19,1.65,1.65,0,0,1-.62.91A1,1,0,0,1,168.8,20.92Z"/><path class="cls-1" d="M214.26,23a9.89,9.89,0,0,0-5.63-2.57q-5.9-.91-12.08,3.4a15.64,15.64,0,0,0-3.75,3.78c-.17-.56-1.17-1-3-1.27a48.61,48.61,0,0,0-9.4-.15l.4-1c.26-.66.54-1.45.84-2.34a13.55,13.55,0,0,0,.56-2.06,2.66,2.66,0,0,0-.13-1.48c-.17-.43-.4-.67-.68-.71-.57-.09-1.3.42-2.21,1.53a26.65,26.65,0,0,0-3.48,6.62l-.44.08a9.33,9.33,0,0,0-1.32.32,16.49,16.49,0,0,0-1.56.58q-3.47,1.58-3.79,3.69a1.41,1.41,0,0,0,.22,1,1.24,1.24,0,0,0,.92.58,3.7,3.7,0,0,0,2.21-.62q1.11-.6,2.49-1.2L174,33.35a17.4,17.4,0,0,0,.5,8.85q1.33,3.49,4,3.9c1.25.19,1.92,0,2-.46s-.32-1-1.2-1.53A5.38,5.38,0,0,1,177.16,41a12,12,0,0,1-.19-5.17,19.23,19.23,0,0,1,1.78-5.88l.84-.16q.89-.15,2.31-.33c.95-.13,1.8-.22,2.54-.26q5.87-.34,6.62-.51a6.5,6.5,0,0,0,1.31-.4c-.19.32-.38.64-.55,1a18.92,18.92,0,0,0-2,5.64,17.29,17.29,0,0,0-.05,4.62,8.7,8.7,0,0,0,1.55,4.23,10.46,10.46,0,0,0,7.07,4.67,11.57,11.57,0,0,0,3.22,0,12.34,12.34,0,0,0,2.7-.64,14.23,14.23,0,0,0,2.16-1,14.49,14.49,0,0,0,1.36-.87l.5-.4.24.75a13,13,0,0,0,.86,1.83,5.22,5.22,0,0,0,1.2,1.53,3.94,3.94,0,0,0,1.84,1c.53.08.83-.11.9-.56a3.66,3.66,0,0,0-.44-1.65,13.83,13.83,0,0,1-.85-3.83,17.45,17.45,0,0,1,0-4.69L213,34a4.69,4.69,0,0,0-.24-2.62,1.91,1.91,0,0,0-1.5-1.29c-1.26-.19-2.19.66-2.8,2.56a28.55,28.55,0,0,0-1,4.42,27.51,27.51,0,0,0,0,5.86l-1.33.62a16.65,16.65,0,0,1-3.43,1.11,10.43,10.43,0,0,1-3.87.22,5.52,5.52,0,0,1-4.16-3,8.49,8.49,0,0,1-1-5.48q1-6.24,7.79-9.81a12.51,12.51,0,0,1,8-1.17,4.17,4.17,0,0,1,3.56,2.78c.45,1.12.86,1.71,1.25,1.77.91.14,1.49-.55,1.72-2.07A5.38,5.38,0,0,0,214.26,23Z"/><path class="cls-2" d="M43.18,59.17l-2.58-.42a50.72,50.72,0,0,1-13.23-4.2,4.77,4.77,0,0,1-.78-.4c-.16-.11-.34-.33-.33-.48a.59.59,0,0,1,.39-.42,5.28,5.28,0,0,1,1.63-.09q5.32.84,10.64,1.73a34,34,0,0,1-3.22-4.4C30.57,42.11,30,31.84,28,22.33q-2.58,1.19-5.1,2.53A44,44,0,0,0,11,33.71a14.08,14.08,0,0,1-3.73,2.92c-.7.37-1.36.81-2,1.22A14.46,14.46,0,0,0,.82,41.64c-.6.83-1.22,1.63-.21,2.6a1.16,1.16,0,0,0-.5,1.53,3.14,3.14,0,0,0,.41.89c2.13,3,4.41,5.87,7.85,7.29,1.27.52,2.53,1,3.81,1.55a10.67,10.67,0,0,0,5.61,1,.7.7,0,0,1,.5.16,14.51,14.51,0,0,0,5.33,2.85,49.44,49.44,0,0,0,10.24,2c2.55.31,5.12.56,7.69.63,1.67,0,3.36-.18,5-.28C45.42,61,44.28,60.13,43.18,59.17ZM12.05,46.68a2.47,2.47,0,0,1-2.58-2.22,2.37,2.37,0,1,1,4.73-.28A2.49,2.49,0,0,1,12.05,46.68Zm9.21,8a33.74,33.74,0,0,0,2.32-2.84,9.94,9.94,0,0,0,.27-11.27,22.9,22.9,0,0,0-5.29-5.92.4.4,0,0,1-.16-.33c1,.53,2.07,1,3.09,1.59a16.85,16.85,0,0,1,4.32,3.41c2.75,3.08,2.9,6.64.85,10.06A16.76,16.76,0,0,1,21.26,54.7Z"/><path class="cls-2" d="M247.71,38.33A18.25,18.25,0,0,0,254,27.52c.19-.83-.07-1.24-.84-1.36a36.63,36.63,0,0,0-4.63-.67,45.61,45.61,0,0,0-12.42,1.36q-7.47,1.81-14.94,3.56a9.69,9.69,0,0,1-3,.25c0,.13,0,.27,0,.41a.84.84,0,0,1-.05.17.85.85,0,0,1,0,.16c-.67,4.35-1.43,8.81-1.09,13.22a28.23,28.23,0,0,0,.79,4.81l.09.09c2,2.2,4,4.42,5.84,6.79a97.32,97.32,0,0,0,12.38,13.82,25.68,25.68,0,0,0,3.11,2.39,8.27,8.27,0,0,0,3.63,1.34c.16-.78.27-1.5.47-2.19a8.91,8.91,0,0,0,0-5.19c-.39-1.32-.52-2.72-.81-4.08s-.55-2.48-.87-3.71a11.84,11.84,0,0,1-.67-2.31,13.78,13.78,0,0,0-1.67-5.54c-1.31-2.68-.9-4.7,1.34-6.67S245.33,40.23,247.71,38.33ZM222.2,34.57c3.34-1.15,6.67-2.34,10-3.46A43.44,43.44,0,0,1,245,28.68c.7,0,1.39,0,2.08.06l0,.4a15.11,15.11,0,0,1-2.38.38c-6.32,0-12.26,1.69-18.13,3.8-1.43.52-2.88,1-4.32,1.47Zm8.37,16.59c1.89,1.56,3.72,3.17,5.58,4.76a2.28,2.28,0,0,1,.22.22l-.12.23a7.47,7.47,0,0,1-1.66-.79c-1.33-1.1-2.6-2.27-3.87-3.44a34.83,34.83,0,0,0-7.39-5.67,3.8,3.8,0,0,1-.39-.3,1.33,1.33,0,0,1,1.7.26C226.64,48,228.62,49.55,230.57,51.16Zm-3.07-6.51c2.52.18,5,.71,7.46,1.13,0,.09,0,.18,0,.26l-7.44-1.15A1.94,1.94,0,0,0,227.5,44.65Zm0-4.12a53.39,53.39,0,0,1,11.59-2.06ZM238.36,66.8a6.26,6.26,0,0,1-3.49-2.44c-1.51-2-3-4.06-4.4-6.11a45.55,45.55,0,0,0-9.62-10.5,1.53,1.53,0,0,0-.21-.14l.15-.27a2.44,2.44,0,0,1,.85.29c.86.74,1.72,1.5,2.5,2.32a75.43,75.43,0,0,1,8,10.13C233.8,62.6,235.51,65.12,238.36,66.8ZM239.85,34c-1.33.09-2.66.2-4,.39s-2.65.53-4,.8a33.66,33.66,0,0,1,11.84-1.61c0,.09,0,.18,0,.26C242.46,33.91,241.15,33.93,239.85,34Z"/><path class="cls-1" d="M87.09,43.1c-.1-.23-.71-.41-1.81-.54a15,15,0,0,1-4-1.12q-6.37-2.88-10.51-12.79A77.36,77.36,0,0,1,67,16,78,78,0,0,0,64.11,5.06,1.82,1.82,0,0,0,63,4a2.26,2.26,0,0,0-1.66.11c-1.84.78-3,2.73-3.38,5.87q-.59,4.22-4.27,26.9L51.44,34q-2.3-2.88-5.77-6.83A76.64,76.64,0,0,0,39.78,21,13.09,13.09,0,0,0,37,19a3.87,3.87,0,0,0-1.73-.54,4.43,4.43,0,0,0-1.42.39,2.43,2.43,0,0,0-.85.66,3.87,3.87,0,0,0-.69,1.62,8.45,8.45,0,0,0-.12,2.72,84.59,84.59,0,0,0,1.55,9.55c.81,3,1,3.68,1.31,4.48a48.2,48.2,0,0,0,2.48,6c3.68,7,6.91,12.31,11.21,15a14.52,14.52,0,0,0,8,2.63,11.82,11.82,0,0,0,4.13-.62c.75-.33,1.08-.6,1-.82s-.81-.46-2.07-.59a16.93,16.93,0,0,1-4.63-1.2Q47.89,55.13,43,43.91a35.38,35.38,0,0,1-2.68-7.84,59.12,59.12,0,0,1-.89-6.67L47.37,38q5.16,6.2,7.93,5a4.57,4.57,0,0,0,2.18-1.76A14.09,14.09,0,0,0,59,37.4q1-3.69,3-20.41l.42,1.61q.51,1.63,1.51,4.5c.66,1.92,1.34,3.73,2.06,5.44q4,9.68,9.66,13.35a12.69,12.69,0,0,0,7,2.41,10.12,10.12,0,0,0,3.62-.49C86.88,43.53,87.17,43.3,87.09,43.1Z"/><path class="cls-1" d="M69.42,62.7h-.8L67.4,56.8v5.92h-.73V55.29h1.16l1.22,5.93,1.18-5.93h1.15v7.43H70.6v-6Z"/><path class="cls-1" d="M76.25,61.22,76,62.72H75.2l1.42-7.43h1.2l1.42,7.43h-.83l-.29-1.5Zm.1-.71H78l-.84-4.28Z"/><path class="cls-1" d="M84.72,55.29a1.64,1.64,0,0,1,1.27.44A1.88,1.88,0,0,1,86.37,57v.6a1.93,1.93,0,0,1-.22,1,1.2,1.2,0,0,1-.7.53,1.11,1.11,0,0,1,.72.55,2.12,2.12,0,0,1,.21,1v1.15c0,.17,0,.32,0,.48a1.21,1.21,0,0,0,.13.42h-.84a1.4,1.4,0,0,1-.1-.35,3.78,3.78,0,0,1,0-.56V60.65a1.13,1.13,0,0,0-.28-.87,1.21,1.21,0,0,0-.8-.24h-.59v3.18h-.83V55.29Zm-.21,3.5a1.24,1.24,0,0,0,.77-.21,1,1,0,0,0,.28-.81v-.7a1.24,1.24,0,0,0-.2-.77.78.78,0,0,0-.66-.25h-.81v2.74Z"/><path class="cls-1" d="M91.25,55.29v7.43h-.83V55.29Z"/><path class="cls-1" d="M96.84,55.22a1.53,1.53,0,0,1,1.25.5,2.12,2.12,0,0,1,.4,1.36v.2h-.78V57a1.32,1.32,0,0,0-.2-.78.76.76,0,0,0-.65-.28.74.74,0,0,0-.65.28A1.31,1.31,0,0,0,96,57a1.37,1.37,0,0,0,.18.72,2.55,2.55,0,0,0,.47.57q.27.25.6.51a4.37,4.37,0,0,1,.59.55,2.69,2.69,0,0,1,.47.67,2,2,0,0,1,.18.89,2.12,2.12,0,0,1-.41,1.36,1.85,1.85,0,0,1-2.53,0,2.18,2.18,0,0,1-.4-1.36v-.42h.78V61a1.25,1.25,0,0,0,.21.78.91.91,0,0,0,1.31,0,1.25,1.25,0,0,0,.21-.78,1.37,1.37,0,0,0-.18-.72A2.69,2.69,0,0,0,97,59.7c-.19-.17-.38-.34-.6-.51a5.12,5.12,0,0,1-.59-.55,2.85,2.85,0,0,1-.46-.67,1.91,1.91,0,0,1-.19-.89,2.08,2.08,0,0,1,.41-1.36A1.47,1.47,0,0,1,96.84,55.22Z"/><path class="cls-1" d="M104,55.22a1.53,1.53,0,0,1,1.27.51,2.11,2.11,0,0,1,.41,1.35v.67h-.78V57a1.3,1.3,0,0,0-.21-.79.92.92,0,0,0-1.32,0,1.3,1.3,0,0,0-.21.79V61a1.26,1.26,0,0,0,.21.79.9.9,0,0,0,1.32,0,1.26,1.26,0,0,0,.21-.79V60h.78v.92a2.12,2.12,0,0,1-.41,1.36,1.53,1.53,0,0,1-1.27.51,1.5,1.5,0,0,1-1.25-.51,2.06,2.06,0,0,1-.41-1.36V57.08a2.59,2.59,0,0,1,.1-.76,1.58,1.58,0,0,1,.31-.59,1.35,1.35,0,0,1,.52-.38A1.8,1.8,0,0,1,104,55.22Z"/><path class="cls-1" d="M109.55,57.08a2.07,2.07,0,0,1,.42-1.36,1.57,1.57,0,0,1,1.27-.5,1.6,1.6,0,0,1,1.29.5,2.07,2.07,0,0,1,.42,1.36v3.84a2.07,2.07,0,0,1-.42,1.36,1.57,1.57,0,0,1-1.29.51,1.55,1.55,0,0,1-1.27-.51,2.07,2.07,0,0,1-.42-1.36Zm.82,3.88a1.26,1.26,0,0,0,.21.79.79.79,0,0,0,.66.29.78.78,0,0,0,.67-.29,1.26,1.26,0,0,0,.22-.79V57a1.3,1.3,0,0,0-.22-.79.8.8,0,0,0-.67-.28.82.82,0,0,0-.66.28,1.3,1.3,0,0,0-.21.79Z"/><path class="cls-1" d="M118.48,55.22a1.53,1.53,0,0,1,1.25.5,2.12,2.12,0,0,1,.4,1.36v.2h-.79V57a1.25,1.25,0,0,0-.2-.78.72.72,0,0,0-.64-.28.73.73,0,0,0-.65.28,1.31,1.31,0,0,0-.2.77,1.37,1.37,0,0,0,.18.72,2.55,2.55,0,0,0,.47.57c.18.17.38.34.59.51a3.92,3.92,0,0,1,.6.55A2.42,2.42,0,0,1,120,60a1.91,1.91,0,0,1,.19.89,2.12,2.12,0,0,1-.41,1.36,1.85,1.85,0,0,1-2.53,0,2.12,2.12,0,0,1-.4-1.36v-.42h.77V61a1.25,1.25,0,0,0,.22.78.91.91,0,0,0,1.31,0,1.25,1.25,0,0,0,.21-.78,1.37,1.37,0,0,0-.18-.72,3,3,0,0,0-.46-.56l-.6-.51a5.12,5.12,0,0,1-.59-.55A2.85,2.85,0,0,1,117,58a1.91,1.91,0,0,1-.19-.89,2.14,2.14,0,0,1,.4-1.36A1.5,1.5,0,0,1,118.48,55.22Z"/><path class="cls-1" d="M130.18,60.05l-1.57-4.76h.86l1.16,3.65,1.16-3.65h.79L131,60.05v2.67h-.82Z"/><path class="cls-1" d="M142.78,55.22a1.51,1.51,0,0,1,1.26.51,2.05,2.05,0,0,1,.41,1.35v.67h-.78V57a1.3,1.3,0,0,0-.21-.79.92.92,0,0,0-1.32,0,1.3,1.3,0,0,0-.21.79V61a1.26,1.26,0,0,0,.21.79.9.9,0,0,0,1.32,0,1.26,1.26,0,0,0,.21-.79V60h.78v.92a2.06,2.06,0,0,1-.41,1.36,1.81,1.81,0,0,1-2.52,0,2.12,2.12,0,0,1-.41-1.36V57.08a2.59,2.59,0,0,1,.1-.76,1.58,1.58,0,0,1,.31-.59,1.43,1.43,0,0,1,.52-.38A1.85,1.85,0,0,1,142.78,55.22Z"/><path class="cls-1" d="M148.32,57.08a2.07,2.07,0,0,1,.42-1.36,1.89,1.89,0,0,1,2.56,0,2.07,2.07,0,0,1,.42,1.36v3.84a2.07,2.07,0,0,1-.42,1.36,1.86,1.86,0,0,1-2.56,0,2.07,2.07,0,0,1-.42-1.36Zm.82,3.88a1.26,1.26,0,0,0,.21.79A.8.8,0,0,0,150,62a.77.77,0,0,0,.66-.29,1.2,1.2,0,0,0,.22-.79V57a1.24,1.24,0,0,0-.22-.79A.79.79,0,0,0,150,56a.82.82,0,0,0-.67.28,1.3,1.3,0,0,0-.21.79Z"/><path class="cls-1" d="M157.29,55.22a1.53,1.53,0,0,1,1.27.51,2.11,2.11,0,0,1,.41,1.35v.67h-.79V57a1.3,1.3,0,0,0-.21-.79.91.91,0,0,0-1.31,0,1.24,1.24,0,0,0-.22.79V61a1.2,1.2,0,0,0,.22.79.88.88,0,0,0,1.31,0,1.26,1.26,0,0,0,.21-.79V60H159v.92a2.12,2.12,0,0,1-.41,1.36,1.82,1.82,0,0,1-2.53,0,2.12,2.12,0,0,1-.4-1.36V57.08a2.59,2.59,0,0,1,.1-.76,1.57,1.57,0,0,1,.3-.59,1.43,1.43,0,0,1,.52-.38A1.88,1.88,0,0,1,157.29,55.22Z"/><path class="cls-1" d="M164,62.72V56.05H162.6v-.76h3.55v.76h-1.36v6.67Z"/><path class="cls-1" d="M172.54,58.58v.74h-1.82V62H173v.76h-3V55.29h3v.76h-2.23v2.53Z"/><path class="cls-1" d="M176.89,62.72V55.29h.83V62h2.12v.76Z"/><path class="cls-1" d="M186.29,58.58v.74h-1.82V62h2.23v.76h-3V55.29h3v.76h-2.23v2.53Z"/><path class="cls-1" d="M192.2,55.22a1.51,1.51,0,0,1,1.25.5,2.12,2.12,0,0,1,.4,1.36v.2h-.78V57a1.25,1.25,0,0,0-.2-.78.73.73,0,0,0-.65-.28.72.72,0,0,0-.64.28,1.24,1.24,0,0,0-.21.77,1.38,1.38,0,0,0,.19.72,2.5,2.5,0,0,0,.46.57l.6.51a3.92,3.92,0,0,1,.6.55,2.65,2.65,0,0,1,.46.67,2,2,0,0,1,.19.89,2.12,2.12,0,0,1-.41,1.36,1.56,1.56,0,0,1-1.27.5,1.54,1.54,0,0,1-1.26-.5,2.12,2.12,0,0,1-.4-1.36v-.42h.77V61a1.25,1.25,0,0,0,.21.78.77.77,0,0,0,.66.28.76.76,0,0,0,.66-.28A1.25,1.25,0,0,0,193,61a1.29,1.29,0,0,0-.19-.72,2.41,2.41,0,0,0-.46-.56c-.18-.17-.38-.34-.59-.51a5.12,5.12,0,0,1-.59-.55,2.88,2.88,0,0,1-.47-.67,2,2,0,0,1-.18-.89,2.08,2.08,0,0,1,.4-1.36A1.48,1.48,0,0,1,192.2,55.22Z"/></g></g></svg>